<svg width="1179" height="223" viewBox="0 0 1179 223" fill="none" xmlns="http://www.w3.org/2000/svg">
<path d="M432.847 154.752C432.847 171.189 426.87 184.006 414.914 193.204C402.958 202.401 386.733 207 366.238 207C344.035 207 326.956 204.147 315 198.441V177.491C322.686 180.727 331.055 183.282 340.107 185.156C349.159 187.029 358.125 187.966 367.007 187.966C381.524 187.966 392.455 185.241 399.799 179.79C407.143 174.255 410.815 166.59 410.815 156.796C410.815 150.324 409.491 145.044 406.844 140.956C404.282 136.783 399.927 132.951 393.778 129.459C387.715 125.967 378.45 122.007 365.982 117.579C348.561 111.362 336.093 103.995 328.578 95.479C321.149 86.9627 317.434 75.849 317.434 62.1377C317.434 47.7452 322.856 36.2908 333.702 27.7745C344.547 19.2582 358.894 15 376.742 15C395.358 15 412.48 18.4065 428.108 25.2196L421.319 44.1257C405.862 37.6534 390.832 34.4172 376.229 34.4172C364.701 34.4172 355.691 36.8869 349.201 41.8263C342.711 46.7658 339.466 53.6214 339.466 62.3932C339.466 68.8656 340.662 74.1883 343.053 78.3613C345.444 82.4491 349.458 86.2389 355.094 89.7305C360.815 93.1371 369.526 96.9268 381.225 101.1C400.866 108.083 414.359 115.578 421.703 123.583C429.133 131.588 432.847 141.978 432.847 154.752Z" fill="white"/>
<path d="M588.867 204.445L565.554 145.044H564.924L557.886 125.499H558.765L538.408 71.403L533.193 56.9211C531.581 52.0217 529.943 46.6068 528.278 40.6766C528.158 41.1967 528.036 41.72 527.91 42.2466L527.907 42.2402L490.891 145.044H490.49L467.433 204.445H445.401L519.439 16.9162H537.757L611.412 204.445H588.867Z" fill="white"/>
<path d="M744.118 17.6826H767.559L700.053 204.445H678.533L611.412 17.6826H634.469L677.509 138.529C682.462 152.411 686.39 165.909 689.293 179.024C692.368 165.228 696.381 151.474 701.334 137.762L744.118 17.6826Z" fill="white"/>
<path d="M911.154 204.445L887.84 145.044H886.725L879.688 125.499H881.051L859.275 67.6307C856.457 60.3067 853.554 51.322 850.565 40.6766C850.384 41.4611 850.197 42.2531 850.001 43.0525L849.709 42.2402L811.615 148.036L789.72 204.445H767.687L841.726 16.9162H860.044L933.698 204.445H911.154Z" fill="white"/>
<path d="M1105.73 204.445H1080.88L978.531 47.7026H977.507C978.873 66.0978 979.556 82.9601 979.556 98.2894V204.445H959.445V17.6826H984.04L1086.13 173.786H1087.16C1086.99 171.487 1086.6 164.12 1086 151.687C1085.41 139.168 1085.19 130.226 1085.36 124.86V17.6826H1105.73V204.445Z" fill="white"/>
<path d="M1157.22 204.445V17.6826H1179V204.445H1157.22Z" fill="white"/>
<path fill-rule="evenodd" clip-rule="evenodd" d="M222.253 120.924C249.916 93.2612 249.916 48.4104 222.253 20.7473C194.59 -6.91578 149.739 -6.91578 122.076 20.7473L121.5 20.1714L120.345 21.3261C92.6388 -5.76311 48.2182 -5.57224 20.7473 21.8987C-6.72357 49.3696 -6.91444 93.7901 20.1747 121.497L20.1715 121.5L20.7375 122.066L20.7473 122.076L20.7571 122.085L121.5 222.828L222.828 121.5L222.253 120.924ZM103.318 24.6197C97.6448 16.1565 84.5415 19.6897 83.8334 29.8737L82.3313 51.4749C81.8199 58.8289 88.6575 64.5014 95.7336 62.5934L109.269 58.9435C116.345 57.0355 119.449 48.6826 115.352 42.5712L103.318 24.6197ZM40.2742 76.2678C33.619 68.5627 40.4017 56.7403 50.3602 58.6878L71.4831 62.8185C78.6742 64.2247 82.3493 72.3393 78.6864 78.7236L71.6798 90.9362C68.017 97.3205 59.1962 98.175 54.3904 92.611L40.2742 76.2678ZM91.1087 82.3381C104.485 59.2496 137.634 59.2497 151.01 82.3381L169.962 115.05C183.436 138.309 166.764 167.51 140.011 167.51H102.108C75.3541 167.51 58.6823 138.309 72.1571 115.05L91.1087 82.3381ZM202.474 85.4664C209.129 77.7613 202.346 65.939 192.388 67.8864L171.019 72.0653C163.827 73.4716 160.152 81.5862 163.815 87.9705L170.904 100.325C174.566 106.71 183.387 107.564 188.193 102L202.474 85.4664ZM151.732 27.2201C159.388 20.5229 171.136 27.3485 169.201 37.37L165.049 58.8743C163.651 66.1109 155.588 69.8092 149.243 66.1232L136.966 58.99C130.622 55.304 129.773 46.4275 135.302 41.5913L151.732 27.2201Z" fill="white"/>
</svg>
